<svg width="18" height="18" viewBox="0 0 18 18" fill="none" xmlns="http://www.w3.org/2000/svg">
<path d="M12.75 0.875H5.25C4.09006 0.876241 2.97798 1.33758 2.15778 2.15778C1.33758 2.97798 0.876241 4.09006 0.875 5.25V12.75C0.876241 13.9099 1.33758 15.022 2.15778 15.8422C2.97798 16.6624 4.09006 17.1238 5.25 17.125H12.75C13.9099 17.1238 15.022 16.6624 15.8422 15.8422C16.6624 15.022 17.1238 13.9099 17.125 12.75V5.25C17.1238 4.09006 16.6624 2.97798 15.8422 2.15778C15.022 1.33758 13.9099 0.876241 12.75 0.875ZM9 12.75C8.25832 12.75 7.5333 12.5301 6.91661 12.118C6.29993 11.706 5.81928 11.1203 5.53545 10.4351C5.25162 9.74984 5.17736 8.99584 5.32206 8.26841C5.46675 7.54098 5.8239 6.8728 6.34835 6.34835C6.8728 5.8239 7.54098 5.46675 8.26841 5.32206C8.99584 5.17736 9.74984 5.25162 10.4351 5.53545C11.1203 5.81928 11.706 6.29993 12.118 6.91661C12.5301 7.5333 12.75 8.25832 12.75 9C12.749 9.99424 12.3535 10.9475 11.6505 11.6505C10.9475 12.3535 9.99424 12.749 9 12.75ZM13.6875 5.25C13.5021 5.25 13.3208 5.19502 13.1667 5.092C13.0125 4.98899 12.8923 4.84257 12.8214 4.67127C12.7504 4.49996 12.7318 4.31146 12.768 4.1296C12.8042 3.94775 12.8935 3.7807 13.0246 3.64959C13.1557 3.51848 13.3227 3.42919 13.5046 3.39301C13.6865 3.35684 13.875 3.37541 14.0463 3.44636C14.2176 3.51732 14.364 3.63748 14.467 3.79165C14.57 3.94582 14.625 4.12708 14.625 4.3125C14.625 4.56114 14.5262 4.7996 14.3504 4.97541C14.1746 5.15123 13.9361 5.25 13.6875 5.25ZM11.5 9C11.5 9.49445 11.3534 9.9778 11.0787 10.3889C10.804 10.8 10.4135 11.1205 9.95671 11.3097C9.49989 11.4989 8.99723 11.5484 8.51227 11.452C8.02732 11.3555 7.58186 11.1174 7.23223 10.7678C6.8826 10.4181 6.6445 9.97268 6.54804 9.48773C6.45157 9.00277 6.50108 8.50011 6.6903 8.04329C6.87952 7.58648 7.19995 7.19603 7.61107 6.92133C8.0222 6.64662 8.50555 6.5 9 6.5C9.66304 6.5 10.2989 6.76339 10.7678 7.23223C11.2366 7.70107 11.5 8.33696 11.5 9Z" fill="#808080"/>
</svg>
